<svg width="190" height="42" viewBox="0 0 190 42" fill="none" xmlns="http://www.w3.org/2000/svg">
<g clip-path="url(#clip0_18_662)">
<path fill-rule="evenodd" clip-rule="evenodd" d="M26.8376 29.9374C26.8376 36.5339 21.5844 41.3177 13.24 41.3177C8.40154 41.1837 3.81626 39.1257 0.5 35.6L3.29069 32.5135C5.90269 35.0005 8.97602 37.4176 13.1848 37.4176C17.8597 37.4176 22.9001 34.7959 22.9001 30.0884C22.9001 26.1786 19.7927 23.6282 13.2628 21.6172C5.82148 19.3431 2.04154 16.2568 2.04154 10.4545C2.04154 4.71232 6.90168 0 13.8264 0C18.9984 0 22.2342 2.20427 25.3839 5.02097L22.6403 8.06667C19.8788 5.62035 17.2473 3.96186 14.0181 3.96186C10.0124 3.96186 6.05862 6.54463 6.05862 10.2628C6.05862 13.6318 7.99488 15.7776 14.8303 17.8698C21.0907 19.7978 26.8376 22.7869 26.8376 29.9374ZM60.6135 3.80453C60.6135 5.61366 62.0796 7.08026 63.8883 7.08026C64.7569 7.08068 65.5901 6.73571 66.2042 6.12129C66.8186 5.50689 67.1634 4.67344 67.163 3.80453C67.163 1.9954 65.6968 0.528809 63.8883 0.528809C62.0796 0.528809 60.6135 1.9954 60.6135 3.80453ZM92.3036 1.2002H88.3562V40.6707H92.3036V1.2002ZM101.516 39.3569C101.516 39.3569 103.946 41.3305 112.042 41.3305L112.037 41.329C120.029 41.329 126.515 35.4843 126.515 27.4989C126.515 19.5134 120.034 13.6917 112.042 13.6917C109.775 13.631 107.524 14.0911 105.463 15.0366V1.2002H101.516V39.3569ZM131.124 27.5335C131.123 35.5225 137.599 41.9992 145.589 42.0002C153.579 42.0002 160.056 35.524 160.057 27.5346C160.057 19.5457 153.58 13.0694 145.591 13.0691C137.601 13.0688 131.124 19.5447 131.124 27.5335ZM183.992 40.6829H189.145L177.753 27.1144L188.377 14.389H183.253L175.185 24.0542L167.076 14.389H161.924L172.623 27.1322L161.311 40.6829H166.433L175.19 30.1927L183.992 40.6829ZM145.613 16.9746C141.353 16.974 137.511 19.5403 135.88 23.4767C134.249 27.4132 135.15 31.9444 138.163 34.9574C141.176 37.9703 145.707 38.8716 149.644 37.2406C153.58 35.6097 156.147 31.768 156.146 27.5071C156.145 21.6905 151.43 16.9755 145.613 16.9746ZM112.041 17.6471C109.684 17.6803 107.392 18.4231 105.463 19.7786V36.0698C107.507 37.0635 109.772 37.5165 112.041 37.3857C117.853 37.3857 122.567 33.3243 122.567 27.5165C122.567 21.7087 117.849 17.6455 112.037 17.6455L112.041 17.6471ZM75.2006 1.20064H79.1479V40.6711H75.2006V1.20064ZM50.8559 40.6741L37.0486 26.8668L49.5482 14.3592H55.1296L42.63 26.8668L56.4373 40.6741H50.8559ZM33.0889 1.2002V40.6707H37.0362V1.2002H33.0889ZM62.0533 40.6741H66.0005V14.3592H62.0533V40.6741Z" fill="black"/>
</g>
<defs>
<clipPath id="clip0_18_662">
<rect width="189" height="42" fill="white" transform="translate(0.5)"/>
</clipPath>
</defs>
</svg>
