<svg width="190" height="42" fill="none" xmlns="http://www.w3.org/2000/svg"><g clip-path="url(#clip0_18_662)"><path fill-rule="evenodd" clip-rule="evenodd" d="M26.838 29.937c0 6.597-5.254 11.38-13.598 11.38A18.181 18.181 0 01.5 35.6l2.79-3.087c2.613 2.488 5.686 4.905 9.895 4.905 4.675 0 9.715-2.622 9.715-7.33 0-3.91-3.107-6.46-9.637-8.47C5.82 19.342 2.042 16.256 2.042 10.454 2.042 4.711 6.902 0 13.826 0c5.172 0 8.408 2.204 11.558 5.021L22.64 8.067c-2.761-2.447-5.393-4.105-8.622-4.105-4.006 0-7.96 2.583-7.96 6.3 0 3.37 1.937 5.516 8.772 7.608 6.26 1.928 12.008 4.917 12.008 12.067zM60.614 3.805a3.275 3.275 0 106.55 0 3.275 3.275 0 00-6.55 0zM92.303 1.2h-3.948v39.47h3.948V1.2zm9.212 38.157s2.43 1.974 10.526 1.974l-.005-.002c7.992 0 14.478-5.845 14.478-13.83 0-7.986-6.481-13.807-14.473-13.807-2.267-.061-4.518.4-6.579 1.345V1.2h-3.947v38.157zm29.608-11.823c-.001 7.989 6.475 14.465 14.465 14.466 7.99 0 14.467-6.476 14.468-14.465 0-7.99-6.477-14.466-14.466-14.466-7.99 0-14.467 6.476-14.467 14.464zm52.868 13.149h5.153l-11.392-13.569 10.624-12.725h-5.124l-8.068 9.665-8.109-9.665h-5.152l10.699 12.743-11.312 13.55h5.122l8.757-10.49 8.802 10.49zm-38.379-23.708a10.535 10.535 0 10-.002 21.069 10.535 10.535 0 00.002-21.07zm-33.572.672a11.728 11.728 0 00-6.578 2.132v16.29a13.296 13.296 0 006.578 1.317c5.812 0 10.526-4.062 10.526-9.87 0-5.807-4.718-9.87-10.53-9.87l.004.001zM75.201 1.201h3.947v39.47H75.2V1.201zM50.856 40.674L37.049 26.867l12.5-12.508h5.58L42.63 26.867l13.807 13.807h-5.581zM33.089 1.2v39.47h3.947V1.2H33.09zm28.964 39.474h3.948V14.36h-3.948v26.315z" fill="#000"/></g><defs><clipPath id="clip0_18_662"><path fill="#fff" transform="translate(.5)" d="M0 0h189v42H0z"/></clipPath></defs></svg>